<svg xmlns="http://www.w3.org/2000/svg" xmlns:xlink="http://www.w3.org/1999/xlink" fill="none" version="1.1" width="512" height="512" viewBox="0 0 512 512"><defs><clipPath id="master_svg0_22_1963"><rect x="0" y="0" width="512" height="512" rx="128"/></clipPath></defs><g clip-path="url(#master_svg0_22_1963)"><rect x="0" y="0" width="512" height="512" rx="128" fill="#FFFFFF" fill-opacity="1"/><g><path d="M255.80485328125,71.48001861572266C292.49279328125,71.48001861572266,326.67718328125,82.19890761572266,355.39721328125,100.67585361572266C373.42828328125,112.27610761572265,370.03192328125,137.80773161572267,351.46408328125,148.52787761572267C339.75851328125,155.28609461572267,325.24621328125,153.78014361572264,313.31228328124996,147.43386861572264C296.16032328125,138.31275961572265,276.58613328125,133.14463061572266,255.80485328125,133.14463061572266C188.06415328125001,133.14463061572266,133.14947528125,188.05930861572267,133.14947528125,255.80000861572265L133.14947928125,255.83671861572265C133.15267228125,266.7390386157226,128.26296628125,277.39310861572267,118.82128528125,282.84425861572265L115.08328628125,285.00239861572265C96.49241828125,295.73584861572266,72.67087368125,285.86920861572264,71.68309402125,264.42505861572266C71.55142313225,261.5665486157227,71.48486328125,258.69104861572265,71.48486328125,255.80000861572265C71.48486328125,154.00288361572265,154.00772828125,71.48001861572266,255.80485328125,71.48001861572266ZM105.34450528125001,306.2777786157227C75.21207238125,323.67474861572265,64.88794138125,362.2049286157227,82.28491228125,392.3373786157227L406.34774328125,205.23959861572266C436.48016328125,187.84260861572267,446.80432328125,149.31241561572267,429.40735328125,119.18000061572266L105.34450528125001,306.2777786157227ZM440.12484328125,255.80000861572265C440.12484328125,252.85847861572265,440.05594328125,249.93304861572267,439.91964328125,247.02524861572266C438.91540328125,225.59785861572266,415.10247328125,215.70920861572264,396.52545328125,226.43465861572267L392.89770328125,228.52914861572265C383.37881328125,234.02487861572266,378.45697328125,244.77150861572267,378.46023328125,255.76297861572266L378.46023328125,255.80000861572265C378.46023328125,323.54071861572265,323.54556328125,378.45538861572265,255.80485328125,378.45538861572265C234.98416328125,378.45538861572265,215.37512328125,373.26761861572265,198.19986328125,364.1142386157227C186.26145328125,357.75174861572265,171.72105328125,356.2255286157227,160.00546228125,362.98953861572267C141.45133928125,373.70175861572267,138.08016928125,399.23837861572264,156.08870728124998,410.84445861572266C184.83428328125,429.37027861572267,219.06421328125,440.11999861572264,255.80485328125,440.11999861572264C357.60199328125,440.11999861572264,440.12484328125,357.59714861572263,440.12484328125,255.80000861572265Z" fill-rule="evenodd" fill="#000000" fill-opacity="1"/></g></g></svg>