<svg xmlns="http://www.w3.org/2000/svg" xmlns:xlink="http://www.w3.org/1999/xlink" fill="none" version="1.1" width="512" height="512" viewBox="0 0 512 512"><defs><clipPath id="master_svg0_22_1622"><rect x="0" y="0" width="512" height="512" rx="128"/></clipPath></defs><g clip-path="url(#master_svg0_22_1622)"><rect x="0" y="0" width="512" height="512" rx="128" fill="#000000" fill-opacity="1"/><g><path d="M255.80485328125,71.48001861572266C292.49278328125,71.48001861572266,326.67717328125,82.19890061572266,355.39718328125,100.67583061572266C373.42831328125,112.27608861572266,370.03186328125,137.80768561572268,351.46399328125,148.52784761572264C339.75842328125,155.28605661572266,325.24618328125,153.78010561572268,313.31224328125,147.43384561572265C296.16029328125,138.31275161572268,276.58612328125,133.14463061572266,255.80485328125,133.14463061572266C188.06415328125001,133.14463061572266,133.14947528125,188.05930861572267,133.14947528125,255.80000861572265L133.14947928125,255.83671861572265C133.15267228125,266.73898861572263,128.26298128125,277.3930086157227,118.82134628125,282.8441586157227L115.08329028125,285.00232861572266C96.49242028124999,295.7357686157227,72.67087208125,285.86917861572266,71.68309352125,264.42503861572266C71.55142296125,261.56653861572266,71.48486328125,258.69104861572265,71.48486328125,255.80000861572265C71.48486328125,154.00288361572265,154.00772828125,71.48001861572266,255.80485328125,71.48001861572266ZM105.34462728125,306.2777786157227C75.21219448125,323.67474861572265,64.88806338125,362.2049286157227,82.28503428125,392.3373786157227L406.34787328125,205.23959861572266C436.48028328125,187.84260861572267,446.80444328125,149.31241561572267,429.40747328125,119.18000061572266L105.34462728125,306.2777786157227ZM440.12484328125,255.80000861572265C440.12484328125,252.85847861572265,440.05594328125,249.93303861572267,439.91964328125,247.02522861572265C438.91540328125,225.59784861572265,415.10244328125,215.70914861572265,396.52542328125,226.43458861572265L392.89773328125,228.52904861572264C383.37881328125,234.02478861572266,378.45697328125,244.77145861572265,378.46023328125,255.76297861572266L378.46023328125,255.80000861572265C378.46023328125,323.54071861572265,323.54556328125,378.45538861572265,255.80485328125,378.45538861572265C234.98414328125,378.45538861572265,215.37509328125,373.26761861572265,198.19981328125,364.11420861572265C186.26139328124998,357.75171861572267,171.72100328125,356.22549861572264,160.00538628125,362.9895086157227C141.45126328125,373.70172861572263,138.08013928125,399.23834861572266,156.08866928125002,410.84445861572266C184.83424328125,429.37027861572267,219.06418328125,440.11999861572264,255.80485328125,440.11999861572264C357.60199328125,440.11999861572264,440.12484328125,357.59714861572263,440.12484328125,255.80000861572265Z" fill-rule="evenodd" fill="#FFFFFF" fill-opacity="1"/></g></g></svg>